<svg t="1719134414818" class="icon" viewBox="0 0 1024 1024" version="1.1" xmlns="http://www.w3.org/2000/svg" p-id="2331" width="128" height="128"><path d="M903.4 98.2H120.1c-30.9 0-55.9 25-55.9 55.9v606.5c0 30.9 25 55.9 55.9 55.9h223.8v55.9c0 30.9 25 55.9 55.9 55.9h223.8c30.9 0 55.9-25 55.9-55.9v-55.9h223.8c30.9 0 55.9-25 55.9-55.9V154.1c0.1-30.9-24.9-55.9-55.8-55.9z m-6.8 648.7H127.3V168.4h769.3v578.5z" p-id="2332"></path><path d="M416.3 352.6c0-53.4 43.8-96.5 97.3-95.6 52.5 1 95.7 46.7 93.7 99.1-2.2 60.9-61.4 107.2-126 87.3-39.1-12.1-65-49.7-65-90.8z m95.6 122.9c-63.8 0-191.1 36.6-191.1 109.2v26.6c0 15.4 12.5 28 28 28h326.3c15.4 0 28-12.5 28-28v-26.6c0-72.6-127.4-109.2-191.2-109.2z" p-id="2333"></path></svg>
