<svg t="1719068772652" class="icon" viewBox="0 0 1024 1024" version="1.1" xmlns="http://www.w3.org/2000/svg" p-id="3976" width="32" height="32"><path d="M485 886.6c21.2 0 38.4-17 38.4-38.8V111.4c0-21.5-17.5-38.9-38.4-38.9H368c-21.2 0-38.4 17.1-38.4 38.9v736.4c0 21.5 17.5 38.8 38.4 38.8h117zM368.3 111.5c0-0.3 116.4-0.1 116.4-0.1-0.3 0-0.3 736.4-0.3 736.4 0 0.3-116.4 0.1-116.4 0.1 0.3 0 0.3-736.4 0.3-736.4z m417.2 776.4l113-30.3c20.5-5.5 32.7-26.4 27.1-47.5L735 98.9c-5.5-20.7-26.9-33-47.2-27.6l-113 30.3c-20.5 5.5-32.7 26.4-27.1 47.5l190.6 711.3c5.6 20.7 26.9 32.9 47.2 27.5z m-88-779c-0.3 0.1 190.3 711.4 190.3 711.4 0.1 0.3-112.4 30.2-112.4 30.2 0.3-0.1-190.3-711.3-190.3-711.3-0.1-0.4 112.4-30.3 112.4-30.3zM252.4 886.6c21.2 0 38.4-17.1 38.4-38.9V111.4c0-21.5-17.5-38.9-38.4-38.9h-117c-21.2 0-38.4 17.1-38.4 38.9v736.4c0 21.5 17.5 38.8 38.4 38.8h117zM135.7 111.5c0-0.3 116.4-0.1 116.4-0.1-0.3 0-0.3 736.4-0.3 736.4 0 0.3-116.4 0.1-116.4 0.1 0.3 0 0.3-736.4 0.3-736.4z m0 0"  p-id="3977"></path><path d="M775.7 895.2c-19.7 0-37.8-13.3-43.2-33.3L541.9 150.6c-6.5-24.3 7.3-48.4 31.3-54.8l113-30.3c11.4-3 23.3-1.4 33.7 4.6 10.4 6 17.8 15.7 20.9 27.2l190.6 711.3c6.5 24.3-7.3 48.4-31.3 54.8l-113.8 30.5c-3.6 0.9-7.1 1.3-10.6 1.3zM697.6 76c-2.7 0-5.5 0.4-8.2 1.1l-113 30.3c-17.5 4.7-27.6 22.3-22.8 40.1l190.6 711.3c4.7 17.5 22.6 27.9 39.9 23.4l0.6-0.2L897 851.9c17.5-4.7 27.6-22.3 22.8-40.1L729.2 100.4c-2.3-8.5-7.7-15.6-15.3-20-5.1-2.9-10.7-4.4-16.3-4.4zM485 892.6H368c-24.5 0-44.4-20.1-44.4-44.8V111.4c0-25.1 19.5-44.8 44.4-44.9h117c24.5 0 44.4 20.1 44.4 44.9v736.4c0 12.1-4.6 23.4-13 31.8-8.3 8.4-19.5 13-31.4 13zM368 78.5c-18.2 0-32.4 14.5-32.4 32.9v736.4c0 18.1 14.5 32.8 32.4 32.8h118.6c17.4-0.8 30.8-14.9 30.8-32.8V111.4c0-18.1-14.5-32.9-32.4-32.9H368zM252.4 892.6h-117c-24.5 0-44.4-20.1-44.4-44.8V111.4c0-25.1 19.5-44.8 44.4-44.9h117c24.5 0 44.4 20.1 44.4 44.9v736.4c0 12.1-4.6 23.4-13 31.9-8.3 8.3-19.5 12.9-31.4 12.9z m-117-814.1c-18.2 0-32.4 14.5-32.4 32.9v736.4c0 18.1 14.5 32.8 32.4 32.8H254c17.4-0.8 30.8-15 30.8-32.8V111.4c0-18.1-14.5-32.9-32.4-32.9h-117zM777 856.2l-1.5-5.8-5.9 1.3c-2.2-9.3-188.4-704-190.3-711.1l-0.6-2.2 1-2c1.2-2.5 2.1-2.7 8.7-4.5 3.1-0.9 7.5-2 12.8-3.5 10.5-2.8 24.6-6.6 38.6-10.4 28.1-7.5 56.1-15 56.1-15l1.5 5.8 5.9-1.3c2.2 9.2 188.4 704.1 190.3 711.1 0.6 2.2 0.6 6-5.4 7.7-0.8 0.2-2.1 0.6-3.6 1-3.1 0.8-7.5 2-12.8 3.5-10.5 2.8-24.6 6.6-38.7 10.4-28 7.6-56.1 15-56.1 15z m-184.5-713C601 175 643.6 334 686.2 493.1c23.8 88.9 47.6 177.8 65.4 244.5 8.9 33.4 16.3 61.2 21.5 80.6 2.6 9.7 4.6 17.4 6 22.6 0.2 0.8 0.4 1.5 0.6 2.2 36.3-9.7 84.7-22.6 100.8-27-8.4-31.5-51.1-190.6-93.7-349.8-23.8-88.9-47.6-177.8-65.4-244.5-8.9-33.4-16.3-61.2-21.5-80.6-2.6-9.7-4.6-17.4-6-22.6-0.2-0.8-0.4-1.5-0.6-2.2-36.4 9.6-84.8 22.5-100.8 26.9zM882 821.7zM443.4 854h-17.3c-29.1 0-58.1-0.1-58.1-0.1v-6l-6-0.3c0.3-9.4 0.3-728.8 0.3-736.1V109l1.8-1.8c1.8-1.8 2.5-1.8 9.3-1.8h53.3c29.1 0 58.1 0.1 58.1 0.1v12c3.2 0 5.9-2.6 6-5.7-0.3 9.7-0.3 728.8-0.3 736.1v2.5l-1.8 1.8c-1.8 1.8-2.5 1.8-9.3 1.8-3.2 0-7.8 0-13.3 0.1-6.5-0.1-14.4-0.1-22.7-0.1z m-69.3-12.1c37.6 0.1 87.7 0.1 104.3 0V479.6c0-92 0-184.1 0.1-253.1 0-34.5 0-63.3 0.1-83.4 0-10.1 0-18 0.1-23.4v-2.3c-37.6-0.1-87.7-0.1-104.3 0v362.3c0 92.1 0 184.1-0.1 253.1 0 34.5 0 63.3-0.1 83.4v23.4c-0.1 0.8-0.1 1.6-0.1 2.3zM210.8 854h-17.3c-29.1 0-58.1-0.1-58.1-0.1v-6l-6-0.3c0.3-9.4 0.3-728.8 0.3-736.1V109l1.8-1.8c1.8-1.8 2.5-1.8 9.3-1.8h53.3c29.1 0 58.1 0.1 58.1 0.1v12c3.2 0 5.9-2.6 6-5.7-0.3 9.7-0.3 728.8-0.3 736.1v2.5L256 852c-1.8 1.8-2.5 1.8-9.3 1.8-3.2 0-7.8 0-13.3 0.1-6.4 0.1-14.2 0.1-22.6 0.1z m-69.3-12.1c37.6 0.1 87.7 0.1 104.3 0V479.6c0-92 0-184.1 0.1-253.1 0-34.5 0-63.3 0.1-83.4 0-10.1 0-18 0.1-23.4v-2.3c-37.6-0.1-87.7-0.1-104.3 0v362.3c0 92.1 0 184.1-0.1 253.1 0 34.5 0 63.3-0.1 83.4v23.4c-0.1 0.8-0.1 1.6-0.1 2.3z"  p-id="3978"></path></svg>
