<svg viewBox="0 0 1000 1000" fill="none" xmlns="http://www.w3.org/2000/svg">
    <path
        d="M0 500C0 223.858 223.858 0 500 0C776.142 0 1000 223.858 1000 500C1000 776.142 776.142 1000 500 1000C223.858 1000 0 776.142 0 500Z"
        fill="currentColor"></path>
    <path
        d="M200.586 392.877C181.963 360.623 193.015 319.379 225.269 300.757C257.524 282.135 298.767 293.186 317.39 325.44L494.411 632.051C513.033 664.305 501.982 705.549 469.728 724.171C437.473 742.793 396.229 731.742 377.607 699.488L200.586 392.877Z"
        fill="white"></path>
    <path
        d="M453.948 392.877C435.326 360.623 446.377 319.379 478.631 300.757C510.886 282.135 552.129 293.186 570.752 325.44L747.773 632.051C766.395 664.305 755.344 705.549 723.09 724.171C690.835 742.793 649.591 731.742 630.969 699.488L453.948 392.877Z"
        fill="white"></path>
    <path
        d="M673.592 334.475C673.592 297.231 703.784 267.039 741.029 267.039C778.273 267.039 808.465 297.231 808.465 334.475C808.465 371.72 778.273 401.912 741.029 401.912C703.784 401.912 673.592 371.72 673.592 334.475Z"
        fill="white"></path>
</svg>