
                  <svg xmlns="http://www.w3.org/2000/svg" fill="none" viewBox="0 0 11927 8887" >
                        <path fill="#E6E6E6" d="M11926.2 7809.24H0V7815.21H11926.2V7809.24Z"></path>
                        <path fill="#E6E6E6" d="M2977.24 8170.13H2187.26V8176.09H2977.24V8170.13Z"></path>
                        <path fill="#E6E6E6" d="M1937.28 8170.13H1479.56V8176.09H1937.28V8170.13Z"></path>
                        <path fill="#E6E6E6" d="M5022.1 8257.91H4564.38V8263.87H5022.1V8257.91Z"></path>
                        <path fill="#E6E6E6" d="M7408.76 8391H6378.58V8396.97H7408.76V8391Z"></path>
                        <path fill="#E6E6E6" d="M6166.3 8391H6015.31V8396.97H6166.3V8391Z"></path>
                        <path fill="#E6E6E6" d="M10813.4 8257.91H8578.96V8263.87H10813.4V8257.91Z"></path>
                        <path fill="#E6E6E6"
                            d="M5653 6745.43H1047.35C1011.27 6745.37 976.693 6730.99 951.203 6705.46C925.713 6679.92 911.396 6645.32 911.396 6609.23V135.004C911.711 99.1308 926.166 64.8301 951.622 39.5523C977.078 14.2746 1011.48 0.0614528 1047.35 0H5653C5689.12 0 5723.76 14.3493 5749.3 39.8911C5774.84 65.4329 5789.19 100.075 5789.19 136.197V6609.23C5789.19 6645.36 5774.84 6680 5749.3 6705.54C5723.76 6731.08 5689.12 6745.43 5653 6745.43ZM1047.35 4.77048C1012.86 4.83366 979.792 18.5825 955.42 42.9992C931.048 67.4159 917.36 100.505 917.36 135.004V6609.23C917.36 6643.73 931.048 6676.82 955.42 6701.24C979.792 6725.66 1012.86 6739.41 1047.35 6739.47H5653C5687.52 6739.41 5720.61 6725.66 5745.02 6701.25C5769.43 6676.84 5783.17 6643.76 5783.23 6609.23V135.004C5783.17 100.483 5769.43 67.3945 5745.02 42.9846C5720.61 18.5748 5687.52 4.83353 5653 4.77048H1047.35Z">
                        </path>
                        <path fill="#E6E6E6"
                            d="M10812.5 6745.43H6206.61C6170.51 6745.37 6135.9 6731 6110.37 6705.47C6084.84 6679.94 6070.47 6645.34 6070.41 6609.23V135.004C6070.79 99.109 6085.3 64.8085 6110.79 39.5374C6136.28 14.2663 6170.71 0.0607826 6206.61 0H10812.5C10848.3 0.124139 10882.7 14.365 10908.1 39.636C10933.5 64.907 10947.9 99.172 10948.2 135.004V6609.23C10948.2 6645.27 10933.9 6679.84 10908.5 6705.37C10883 6730.9 10848.5 6745.31 10812.5 6745.43ZM6206.61 4.77048C6172.09 4.83353 6139 18.5748 6114.59 42.9846C6090.18 67.3945 6076.44 100.483 6076.37 135.004V6609.23C6076.44 6643.76 6090.18 6676.84 6114.59 6701.25C6139 6725.66 6172.09 6739.41 6206.61 6739.47H10812.5C10847 6739.41 10880.1 6725.66 10904.5 6701.25C10928.9 6676.84 10942.7 6643.76 10942.7 6609.23V135.004C10942.7 100.483 10928.9 67.3945 10904.5 42.9846C10880.1 18.5748 10847 4.83353 10812.5 4.77048H6206.61Z">
                        </path>
                        <path fill="#E0E0E0" d="M6378.11 5771.78H5853.59V7852.42H6378.11V5771.78Z"></path>
                        <path fill="#FAFAFA" d="M6278.4 7852.42H6378.11V7569.05H6173.93L6278.4 7852.42Z"></path>
                        <path fill="#E0E0E0" d="M4079.7 5771.78H3555.19V7852.42H4079.7V5771.78Z"></path>
                        <path fill="#FAFAFA" d="M6378.11 5771.78H3992.88V7678.53H6378.11V5771.78Z"></path>
                        <path fill="#E0E0E0"
                            d="M6291.52 5865.52V6370H4078.74V5865.52H6290.81M6300.11 5856.22H4070.16V6379.06H6300.83V5856.22H6300.11Z">
                        </path>
                        <path fill="#FAFAFA" d="M4092.34 7852.42H3992.88V7569.05H4196.81L4092.34 7852.42Z"></path>
                        <path fill="#E6E6E6"
                            d="M5132.78 6117.64C5132.78 6128.07 5135.87 6138.26 5141.66 6146.93C5147.45 6155.59 5155.69 6162.35 5165.32 6166.34C5174.95 6170.33 5185.55 6171.37 5195.77 6169.34C5206 6167.31 5215.39 6162.29 5222.77 6154.91C5230.14 6147.54 5235.16 6138.15 5237.19 6127.92C5239.23 6117.7 5238.18 6107.1 5234.19 6097.47C5230.2 6087.84 5223.45 6079.6 5214.78 6073.81C5206.11 6068.02 5195.92 6064.93 5185.49 6064.93C5171.51 6064.93 5158.1 6070.48 5148.22 6080.37C5138.33 6090.25 5132.78 6103.66 5132.78 6117.64Z">
                        </path>
                        <path fill="#E0E0E0"
                            d="M6291.52 6472.8V6977.28H4078.74V6472.8H6290.81M6300.11 6463.74H4070.16V6986.58H6300.83V6463.98L6300.11 6463.74Z">
                        </path>
                        <path fill="#E6E6E6"
                            d="M5132.78 6726.35C5132.78 6736.78 5135.87 6746.97 5141.66 6755.64C5147.45 6764.31 5155.69 6771.06 5165.32 6775.05C5174.95 6779.04 5185.55 6780.08 5195.77 6778.05C5206 6776.02 5215.39 6771 5222.77 6763.62C5230.14 6756.25 5235.16 6746.86 5237.19 6736.63C5239.23 6726.41 5238.18 6715.81 5234.19 6706.18C5230.2 6696.55 5223.45 6688.31 5214.78 6682.52C5206.11 6676.73 5195.92 6673.64 5185.49 6673.64C5171.51 6673.64 5158.1 6679.19 5148.22 6689.08C5138.33 6698.96 5132.78 6712.37 5132.78 6726.35Z">
                        </path>
                        <path fill="#E0E0E0"
                            d="M6291.52 7080.32V7585.03H4078.74V7080.32H6290.81M6300.11 7071.02H4070.16V7594.1H6300.83V7071.02H6300.11Z">
                        </path>
                        <path fill="#E6E6E6"
                            d="M5132.78 7332.68C5132.83 7343.09 5135.96 7353.26 5141.78 7361.9C5147.6 7370.53 5155.85 7377.25 5165.48 7381.21C5175.12 7385.16 5185.71 7386.17 5195.92 7384.11C5206.13 7382.05 5215.5 7377.01 5222.85 7369.63C5230.2 7362.25 5235.19 7352.85 5237.21 7342.63C5239.22 7332.42 5238.17 7321.83 5234.17 7312.21C5230.17 7302.59 5223.42 7294.37 5214.75 7288.59C5206.09 7282.81 5195.91 7279.72 5185.49 7279.72C5178.55 7279.72 5171.67 7281.1 5165.26 7283.76C5158.85 7286.42 5153.03 7290.33 5148.13 7295.25C5143.23 7300.17 5139.36 7306.01 5136.72 7312.43C5134.09 7318.85 5132.75 7325.73 5132.78 7332.68Z">
                        </path>
                        <path fill="#E0E0E0" d="M3759.36 4563.42H3234.85V7852.66H3759.36V4563.42Z"></path>
                        <path fill="#FAFAFA" d="M3659.66 7852.42H3759.36V7569.05H3555.42L3659.66 7852.42Z"></path>
                        <path fill="#E0E0E0" d="M1799.18 4563.42H1274.67V7852.66H1799.18V4563.42Z"></path>
                        <path fill="#FAFAFA" d="M3759.36 4563.42H1712.12V7678.77H3759.36V4563.42Z"></path>
                        <path fill="#E0E0E0"
                            d="M3671.11 4651.2V5356.51H1800.37V4651.2H3671.11ZM3682.08 4640.47H1788.92V5366.77H3681.6V4640.71L3682.08 4640.47Z">
                        </path>
                        <path fill="#E0E0E0"
                            d="M3671.11 5442.62V7313.35H2779.99V5442.62H3671.11ZM3682.08 5431.65H2769.25V7324.33H3682.08V5431.65Z">
                        </path>
                        <path fill="#E0E0E0"
                            d="M2691.49 5442.62V7313.35H1800.37V5442.62H2691.49ZM2702.23 5431.65H1788.92V7324.33H2701.75V5431.65H2702.23Z">
                        </path>
                        <path fill="#FAFAFA" d="M1811.82 7852.42H1712.12V7569.05H1916.29L1811.82 7852.42Z"></path>
                        <path fill="#E6E6E6"
                            d="M2682.91 5004.21C2682.86 5014.7 2685.92 5024.96 2691.71 5033.7C2697.5 5042.44 2705.76 5049.26 2715.43 5053.3C2725.1 5057.35 2735.75 5058.43 2746.04 5056.42C2756.33 5054.4 2765.79 5049.38 2773.22 5041.98C2780.65 5034.58 2785.71 5025.15 2787.78 5014.87C2789.84 5004.59 2788.8 4993.93 2784.8 4984.24C2780.8 4974.55 2774.02 4966.27 2765.3 4960.44C2756.59 4954.61 2746.34 4951.5 2735.86 4951.5C2721.86 4951.5 2708.42 4957.05 2698.5 4966.93C2688.58 4976.8 2682.97 4990.21 2682.91 5004.21Z">
                        </path>
                        <path fill="#E6E6E6"
                            d="M2871.82 6333.5C2871.82 6343.99 2874.93 6354.23 2880.76 6362.95C2886.59 6371.66 2894.87 6378.45 2904.56 6382.45C2914.25 6386.45 2924.91 6387.48 2935.19 6385.42C2945.47 6383.36 2954.9 6378.29 2962.3 6370.86C2969.69 6363.43 2974.72 6353.97 2976.73 6343.69C2978.75 6333.4 2977.67 6322.75 2973.62 6313.07C2969.58 6303.4 2962.75 6295.15 2954.01 6289.36C2945.27 6283.57 2935.01 6280.5 2924.53 6280.55C2917.59 6280.55 2910.71 6281.92 2904.3 6284.59C2897.89 6287.25 2892.07 6291.15 2887.17 6296.07C2882.27 6301 2878.4 6306.83 2875.76 6313.26C2873.13 6319.68 2871.79 6326.56 2871.82 6333.5Z">
                        </path>
                        <path fill="#E6E6E6"
                            d="M2494.23 6333.5C2494.28 6343.92 2497.41 6354.09 2503.23 6362.72C2509.06 6371.36 2517.3 6378.08 2526.94 6382.03C2536.58 6385.99 2547.17 6387 2557.38 6384.94C2567.59 6382.88 2576.96 6377.84 2584.31 6370.45C2591.65 6363.07 2596.65 6353.68 2598.67 6343.46C2600.68 6333.24 2599.62 6322.66 2595.63 6313.04C2591.63 6303.42 2584.87 6295.2 2576.21 6289.42C2567.55 6283.64 2557.36 6280.55 2546.95 6280.55C2540.01 6280.55 2533.13 6281.92 2526.72 6284.59C2520.31 6287.25 2514.49 6291.15 2509.59 6296.07C2504.69 6300.99 2500.81 6306.83 2498.18 6313.26C2495.54 6319.68 2494.2 6326.56 2494.23 6333.5Z">
                        </path>
                        <path fill="#E0E0E0"
                            d="M2434.61 3646.3H2213.49C2233.87 3753.56 2246.7 3862.12 2251.9 3971.17C2251.9 4090.43 2083.5 4563.42 2323.45 4563.42C2563.41 4563.42 2395.01 4091.63 2395.01 3971.17C2400.6 3862.09 2413.83 3753.53 2434.61 3646.3Z">
                        </path>
                        <path fill="#F5F5F5"
                            d="M1593.33 4130.03V4273.14C1593.59 4349.86 1624.17 4423.37 1678.42 4477.62C1732.67 4531.87 1806.18 4562.46 1882.9 4562.71H2026.01C2102.74 4562.46 2176.24 4531.87 2230.49 4477.62C2284.74 4423.37 2315.33 4349.86 2315.58 4273.14V4130.03H1593.33Z">
                        </path>
                        <path fill="#E0E0E0"
                            d="M4667.18 5468.38C4667.18 5635.35 4853.94 5771.78 5082.21 5771.78H5288.29C5516.56 5771.78 5703.32 5635.35 5703.32 5468.38H4667.18Z">
                        </path>
                        <path fill="#E0E0E0"
                            d="M10127.9 5223.65C10002.9 5325.74 9830.25 5512.51 9672.35 5775.36C9566.92 5950.43 9503.47 6133.14 9475.57 6375.96C9475.57 6101.66 9477.24 5807.08 9478.19 5528.96C9509.91 5457.41 9582.43 5292.35 9634.42 5162.12C9807.83 4727.29 9872.95 4620.19 10028.7 4245.23C10236.9 3744.33 10450.2 3151.37 10389.1 3198.83C10264.6 3295.43 9787.55 4188.7 9736.03 4316.55C9595.6 4657.74 9508.78 5018.6 9478.67 5386.33C9478.67 5123.95 9480.58 4885.43 9481.53 4700.33C9484.87 4096.63 9495.13 3901.76 9500.13 3841.65C9519.46 3811.12 9542.11 3775.58 9555.47 3756.5C9667.58 3594.3 9710.75 3456.44 9816.18 3214.57C9965.97 2872.29 10094.8 2264.3 10057.1 2294.83C9900.14 2422.68 9776.58 2696.98 9613.91 3046.89C9451.24 3396.81 9497.75 3597.88 9465.55 3896.51C9458.87 3955.19 9453.62 4176.54 9449.81 4483.04C9407.83 4156.26 9328.64 3941.12 9184.33 3745.53C9006.87 3504.86 8835.13 3342.42 8709.19 3257.51C8583.25 3172.59 8926.73 3763.66 9090.83 4020.78C9237.04 4250.72 9371.81 4453.23 9448.61 4652.87C9444.56 5068.61 9442.65 5594.8 9442.65 6084.01C9404.96 5861.23 9343.42 5621.03 9261.37 5435.22C9162.62 5211.97 9010.92 4869.45 8889.99 4753.29C8861.13 4725.38 9016.41 5391.57 9116.11 5568.56C9215.81 5745.54 9289.04 5912.75 9351.77 6013.17C9366.32 6037.02 9414.98 6126.94 9442.65 6178.94C9442.65 6776.92 9445.99 7304.53 9451.24 7484.14H9477C9475.33 7437.86 9474.85 7133.51 9475.57 6730.88C9537.82 6512.39 9679.98 6262.9 9797.33 6035.35C9925.18 5788.95 10252.9 5122.28 10127.9 5223.65Z">
                        </path>
                        <path fill="#F0F0F0" d="M9837.64 7852.42H9090.11L9033.58 7119.68H9894.17L9837.64 7852.42Z">
                        </path>
                        <path fill="#F5F5F5" d="M9949.75 7205.07H8977.77L8950.1 6957.72H9977.66L9949.75 7205.07Z">
                        </path>
                        <path fill="#E0E0E0" d="M2963.89 488.973H1626.97V1957.08H2963.89V488.973Z"></path>
                        <path fill="#F5F5F5" d="M3108.67 488.973H1727.62V1957.08H3108.67V488.973Z"></path>
                        <path fill="white" d="M2992.99 1841.4V604.656L1843.31 604.656V1841.4H2992.99Z"></path>
                        <path fill="#F5F5F5" d="M2714.15 1541.34V904.24H2121.9V1541.34H2714.15Z"></path>
                        <path fill="#E0E0E0" d="M9780.64 659.994H8538.65V2023.87H9780.64V659.994Z"></path>
                        <path fill="#F5F5F5" d="M9915.16 659.994H8632.39V2023.87H9915.16V659.994Z"></path>
                        <path fill="white" d="M9807.83 1916.29V767.566L8739.96 767.566V1916.29H9807.83Z"></path>
                        <path fill="#F5F5F5"
                            d="M9273.78 1675.15C9457.81 1675.15 9606.99 1525.96 9606.99 1341.93C9606.99 1157.9 9457.81 1008.71 9273.78 1008.71C9089.74 1008.71 8940.56 1157.9 8940.56 1341.93C8940.56 1525.96 9089.74 1675.15 9273.78 1675.15Z">
                        </path>
                        <path fill="#E0E0E0" d="M4352.81 1364.35H3361.03V2453.45H4352.81V1364.35Z"></path>
                        <path fill="#F5F5F5" d="M4460.14 1364.35H3435.69V2453.45H4460.14V1364.35Z"></path>
                        <path fill="white" d="M4374.27 2367.58V1450.22H3521.55V2367.58H4374.27Z"></path>
                        <path fill="#F5F5F5" d="M3948.03 1676.82L3714.76 2080.87H4181.31L3948.03 1676.82Z"></path>
                        <path fill="#F5F5F5"
                            d="M5963.08 8886.41C8517.24 8886.41 10587.8 8765.53 10587.8 8616.41C10587.8 8467.28 8517.24 8346.4 5963.08 8346.4C3408.91 8346.4 1338.35 8467.28 1338.35 8616.41C1338.35 8765.53 3408.91 8886.41 5963.08 8886.41Z">
                        </path>
                        <path fill="#E58A7B"
                            d="M8330.42 2586.31L8093.8 2490.9C8093.8 2490.9 7781.58 3060.25 7692.13 3089.11C7570.48 3128.23 7318.6 3237 7169.29 3256.08C7149.01 3279.93 7115.86 3354.11 7118.96 3381.06C7319.56 3448.09 7760.35 3359.12 7854.8 3288.99C8069.71 3129.9 8330.42 2586.31 8330.42 2586.31Z">
                        </path>
                        <path fill="#429CFD"
                            d="M8403.17 2456.79C8447.29 2619.7 8208.29 2947.43 8208.29 2947.43L7895.11 2771.88C7895.11 2771.88 7953.79 2637.11 8025.35 2499.96C8140.08 2278.37 8352.84 2270.98 8403.17 2456.79Z">
                        </path>
                        <path fill="black"
                            d="M8403.17 2456.79C8447.29 2619.7 8208.29 2947.43 8208.29 2947.43L7895.11 2771.88C7895.11 2771.88 7953.79 2637.11 8025.35 2499.96C8140.08 2278.37 8352.84 2270.98 8403.17 2456.79Z"
                            opacity="0.2"></path>
                        <path fill="black"
                            d="M8019.38 2842L8142.7 2911.17L8164.41 2532.64C8092.61 2587.74 8042.04 2753.75 8019.38 2842Z"
                            opacity="0.2"></path>
                        <path fill="#429CFD"
                            d="M8197.08 2334.19C8197.08 2334.19 7953.31 2876.59 8095.47 3886.49H9056C9071.27 3739.09 9020.7 3019.7 9203.65 2325.12C9098.28 2304.53 8991.67 2290.9 8884.51 2284.34C8748.58 2276.46 8612.32 2276.46 8476.39 2284.34C8382.17 2293.9 8288.8 2310.57 8197.08 2334.19Z">
                        </path>
                        <path fill="black"
                            d="M8197.08 2334.19C8197.08 2334.19 7953.31 2876.59 8095.47 3886.49H9056C9071.27 3739.09 9020.7 3019.7 9203.65 2325.12C9098.28 2304.53 8991.67 2290.9 8884.51 2284.34C8748.58 2276.46 8612.32 2276.46 8476.39 2284.34C8382.17 2293.9 8288.8 2310.57 8197.08 2334.19Z"
                            opacity="0.2"></path>
                        <g style="mix-blend-mode:multiply">
                            <path fill="#E8ECF1"
                                d="M7974.3 8637.88C7972.87 8663.64 8337.1 8684.39 8787.67 8684.39C9238.24 8684.39 9605.08 8663.64 9606.52 8637.88C9607.95 8612.11 9243.96 8591.6 8793.15 8591.6C8342.34 8591.6 7975.97 8612.35 7974.3 8637.88Z">
                            </path>
                        </g>
                        <path fill="#E58A7B"
                            d="M8615.47 7961.01L8445.1 8026.96L8591.85 8406.06L8762.22 8340.11L8615.47 7961.01Z"></path>
                        <path fill="#E58A7B" d="M9375.15 8454.45H9195.54L9129.71 8038.7H9309.32L9375.15 8454.45Z">
                        </path>
                        <path fill="#263238"
                            d="M9183.14 8433.7H9384.93C9388.43 8433.71 9391.81 8434.96 9394.48 8437.23C9397.14 8439.5 9398.91 8442.65 9399.48 8446.1L9425.48 8605.67C9426.02 8609.68 9425.7 8613.75 9424.54 8617.62C9423.37 8621.49 9421.38 8625.06 9418.71 8628.09C9416.04 8631.12 9412.75 8633.55 9409.06 8635.19C9405.37 8636.84 9401.37 8637.67 9397.33 8637.63C9326.97 8636.44 9293.1 8632.15 9204.37 8632.15C9149.74 8632.15 9037.4 8637.87 8961.55 8637.87C8885.7 8637.87 8880.69 8563.45 8911.94 8556.54C9052.19 8526.24 9106.57 8484.98 9153.32 8444.91C9161.56 8437.67 9172.17 8433.68 9183.14 8433.7Z">
                        </path>
                        <path fill="#263238"
                            d="M8586.83 8372.16L8777.65 8316.35C8781.05 8315.39 8784.68 8315.62 8787.94 8317.01C8791.19 8318.4 8793.87 8320.86 8795.54 8323.98L8867.09 8467.09C8868.76 8470.72 8869.61 8474.67 8869.58 8478.67C8869.56 8482.66 8868.67 8486.6 8866.96 8490.21C8865.26 8493.82 8862.79 8497.02 8859.72 8499.58C8856.65 8502.13 8853.06 8503.99 8849.21 8505.02C8779.8 8524.1 8733.28 8535.79 8646.46 8561.07C8586.59 8578.48 8525.53 8606.87 8466.38 8625.71C8425.35 8638.83 8328.99 8639.31 8279.14 8639.31C8205.43 8639.31 8188.97 8561.55 8220.7 8557.97C8300.6 8549.14 8311.34 8553.2 8355.46 8531.02C8427.66 8499.46 8493.1 8454.26 8548.19 8397.92C8558.58 8386.08 8571.91 8377.19 8586.83 8372.16Z">
                        </path>
                        <path fill="#E58A7B"
                            d="M7199.34 3255.12L7001.84 3172.36L6920.51 3391.32C7001.46 3403.65 7083.81 3403.65 7164.76 3391.32L7199.34 3255.12Z">
                        </path>
                        <path fill="#E58A7B"
                            d="M6854.91 3166.63L6849.67 3312.13L6920.51 3390.84L7001.84 3171.88L6854.91 3166.63Z">
                        </path>
                        <path fill="#CF6F64"
                            d="M8638.84 7993.2L8467.94 8059.18L8543.63 8255.22L8714.52 8189.24L8638.84 7993.2Z"></path>
                        <path fill="#CF6F64" d="M9309.32 8038.7H9129.71L9163.82 8253.14H9343.42L9309.32 8038.7Z"></path>
                        <path fill="black"
                            d="M8064.94 3613.38C8068.52 3656.56 8072.57 3700.68 8077.82 3746L8791.96 3514.16C8903.48 3481.11 9000.41 3411.02 9066.74 3315.47C9069.6 3251.78 9073.18 3184.76 9078.66 3114.87C9081.05 3081 9083.91 3046.18 9087.01 3010.88C9090.11 2975.57 9094.41 2936.46 9098.94 2898.77L8064.94 3613.38Z"
                            opacity="0.2"></path>
                        <path fill="white"
                            d="M8298.22 2831.03L8274.36 2828.17C8288.44 2708.91 8377.41 2614.93 8471.15 2617.31V2641.17C8389.09 2639.5 8310.86 2724.17 8298.22 2831.03Z">
                        </path>
                        <path fill="white"
                            d="M8425.35 3051.19H8421.29V3027.33C8503.35 3030.43 8580.39 2944.81 8593.03 2838.19L8616.88 2841.05C8604.24 2957.69 8518.14 3051.19 8425.35 3051.19Z">
                        </path>
                        <path fill="#E58A7B"
                            d="M8871.15 1824.7C8837.52 1956.13 8797.92 2196.8 8884.51 2284.34C8884.51 2284.34 8823.92 2417.67 8579.91 2417.67C8356.89 2417.67 8476.39 2284.34 8476.39 2284.34C8624.75 2249.51 8627.38 2141.22 8607.82 2038.66L8871.15 1824.7Z">
                        </path>
                        <path fill="#CF6F64"
                            d="M8763.81 1912L8608.06 2038.66C8612.89 2062.22 8615.68 2086.17 8616.41 2110.21C8661.96 2155.53 8753.32 2040.8 8762.62 1982.13C8767.35 1959.03 8767.75 1935.25 8763.81 1912Z">
                        </path>
                        <path fill="#CF6F64"
                            d="M8340.2 1823.03C8351.03 1841.82 8365.63 1858.16 8383.07 1871.05C8400.52 1883.94 8420.43 1893.09 8441.57 1897.93C8498.81 1910.57 8527.44 1857.86 8511.7 1804.9C8497.62 1757.2 8450.63 1693.04 8392.43 1704.01C8379.97 1706.58 8368.3 1712.1 8358.4 1720.1C8348.5 1728.11 8340.67 1738.37 8335.56 1750.02C8330.44 1761.68 8328.19 1774.39 8329 1787.09C8329.81 1799.79 8333.65 1812.12 8340.2 1823.03Z">
                        </path>
                        <path fill="#263238"
                            d="M8434.89 1402.51C8345.68 1443.3 8314.2 1797.75 8426.3 1850.22C8538.41 1902.7 8603.77 1324.99 8434.89 1402.51Z">
                        </path>
                        <path fill="#E58A7B"
                            d="M8898.34 1626.97C8876.87 1804.9 8874.49 1909.62 8779.08 2000.73C8749.51 2030.97 8712.17 2052.45 8671.17 2062.79C8630.16 2073.14 8587.1 2071.96 8546.73 2059.37C8506.35 2046.79 8470.24 2023.29 8442.39 1991.48C8414.53 1959.66 8396 1920.76 8388.86 1879.08C8359.99 1719.27 8399.83 1455.23 8578.24 1384.39C8615.73 1367.85 8656.96 1361.65 8697.65 1366.41C8738.34 1371.17 8777.02 1386.73 8809.68 1411.48C8842.33 1436.23 8867.77 1469.26 8883.36 1507.15C8898.95 1545.03 8904.12 1586.4 8898.34 1626.97Z">
                        </path>
                        <path fill="#263238"
                            d="M8605.2 1494.59C8737.34 1460.95 8834.42 1438.06 8799.59 1548.01C8753.56 1694.94 8698.22 1837.1 8772.4 1843.54C8817.72 1847.6 9018.08 1762.69 8992.56 1676.58C8970.37 1601.68 9064.11 1581.17 9080.81 1543.24C9142.59 1405.85 8965.84 1423.98 8997.33 1340.5C9028.81 1257.02 8854.21 1122.49 8758.8 1189.51C8603.53 1297.8 8337.1 1296.13 8477.11 1117.96C8577.53 990.825 8398.4 1016.82 8398.4 1016.82C8398.4 1016.82 8506.69 1080.99 8324.45 1180.21C8131.73 1286.12 8308.47 1570.67 8605.2 1494.59Z">
                        </path>
                        <path fill="#E58A7B"
                            d="M8968.47 1823.03C8942.38 1860.78 8903.19 1887.48 8858.51 1897.93C8799.59 1910.57 8776.93 1857.86 8799.12 1804.9C8818.91 1757.2 8873.3 1693.04 8929.59 1704.01C8985.88 1714.98 8998.76 1776.28 8968.47 1823.03Z">
                        </path>
                        <path fill="#429CFD"
                            d="M8095.47 3886.49C8095.47 3886.49 7934.23 5329.56 7921.59 5877.21C7908.71 6446.8 8468.05 8224.04 8468.05 8224.04L8754.27 8104.77C8754.27 8104.77 8420.34 6480.91 8468.05 5921.57C8518.61 5311.67 8727.56 3887.45 8727.56 3887.45L8095.47 3886.49Z">
                        </path>
                        <path fill="black"
                            d="M8496.19 4282.68C8367.63 4549.35 8454.21 5076.72 8523.86 5389.19C8550.34 5168.56 8581.82 4929.08 8611.64 4707.49C8608.77 4366.88 8582.3 4103.79 8496.19 4282.68Z"
                            opacity="0.2"></path>
                        <path fill="#429CFD"
                            d="M8741.63 8010.32C8743.06 8010.32 8775.5 8101.44 8775.5 8101.44L8445.39 8240.26L8393.39 8143.42L8741.63 8010.32Z">
                        </path>
                        <path fill="#429CFD"
                            d="M8436.32 3886.49C8436.32 3886.49 8559.64 5258.96 8641.21 5772.97C8730.9 6336.13 9082.48 8211.63 9082.48 8211.63H9411.4C9411.4 8211.63 9214.38 6381.68 9177.17 5824.02C9136.63 5219.12 9056 3886.49 9056 3886.49H8436.32Z">
                        </path>
                        <path fill="#429CFD"
                            d="M9416.41 8126C9417.84 8126 9427.38 8217.83 9427.38 8217.83H9065.78L9040.02 8112.41L9416.41 8126Z">
                        </path>
                        <path fill="black"
                            d="M9290.47 8017.24C9289.73 8017.25 9289 8016.99 9288.43 8016.5C9287.86 8016.02 9287.49 8015.35 9287.37 8014.61C9285.46 7997.92 9107.76 6344.95 9074.37 5844.05C9038.12 5300.7 8965.13 4095.44 8964.41 4083.28C8964.38 4082.88 8964.43 4082.48 8964.56 4082.11C8964.69 4081.73 8964.89 4081.39 8965.16 4081.1C8965.43 4080.81 8965.76 4080.57 8966.12 4080.41C8966.48 4080.26 8966.88 4080.17 8967.27 4080.18C8968.06 4080.17 8968.81 4080.47 8969.39 4081C8969.96 4081.53 8970.31 4082.26 8970.37 4083.04C8970.37 4095.2 9044.08 5299.51 9080.33 5843.82C9113.73 6344.71 9291.43 7996.49 9293.1 8014.38C9293.16 8014.77 9293.15 8015.17 9293.05 8015.56C9292.95 8015.95 9292.77 8016.31 9292.53 8016.63C9292.28 8016.94 9291.97 8017.2 9291.61 8017.39C9291.26 8017.58 9290.87 8017.69 9290.47 8017.71V8017.24Z"
                            opacity="0.2"></path>
                        <path fill="#263238"
                            d="M8625.47 1676.58C8625.47 1691.13 8616.41 1702.82 8606.87 1702.82C8597.32 1702.82 8590.41 1691.13 8591.36 1676.58C8592.32 1662.03 8600.43 1650.34 8609.97 1650.34C8619.51 1650.34 8626.42 1662.27 8625.47 1676.58Z">
                        </path>
                        <path fill="#263238"
                            d="M8461.84 1676.58C8461.84 1691.13 8452.54 1702.82 8443.24 1702.82C8433.94 1702.82 8426.78 1691.13 8427.5 1676.58C8428.21 1662.03 8436.8 1650.34 8446.34 1650.34C8455.88 1650.34 8462.8 1662.27 8461.84 1676.58Z">
                        </path>
                        <path fill="#DF5753"
                            d="M8513.36 1683.97C8493.45 1728.4 8467.79 1770.02 8437.04 1807.77C8460.89 1831.62 8505.49 1820.65 8505.49 1820.65L8513.36 1683.97Z">
                        </path>
                        <path fill="#263238"
                            d="M8517.66 1881.47C8517.1 1881.47 8516.56 1881.36 8516.05 1881.14C8515.54 1880.92 8515.08 1880.6 8514.7 1880.2C8514.32 1879.8 8514.03 1879.32 8513.84 1878.8C8513.65 1878.28 8513.57 1877.73 8513.6 1877.18C8513.66 1876.02 8514.17 1874.92 8515.01 1874.12C8515.86 1873.33 8516.97 1872.88 8518.13 1872.88C8536.38 1873.01 8554.42 1869.05 8570.93 1861.29C8587.44 1853.53 8602 1842.17 8613.54 1828.04C8614.37 1827.32 8615.43 1826.92 8616.53 1826.92C8617.62 1826.92 8618.68 1827.32 8619.51 1828.04C8620.28 1828.84 8620.71 1829.91 8620.71 1831.02C8620.71 1832.13 8620.28 1833.2 8619.51 1834C8607.15 1849.02 8591.59 1861.07 8573.97 1869.29C8556.34 1877.5 8537.1 1881.66 8517.66 1881.47Z">
                        </path>
                        <path fill="#263238"
                            d="M8654.57 1632.69C8653.43 1633.28 8652.16 1633.58 8650.87 1633.58C8649.59 1633.58 8648.32 1633.28 8647.18 1632.69C8638.25 1626.92 8628.1 1623.33 8617.53 1622.21C8606.97 1621.1 8596.29 1622.48 8586.35 1626.25C8585.38 1626.73 8584.33 1627.02 8583.25 1627.09C8582.17 1627.16 8581.08 1627.01 8580.06 1626.66C8579.04 1626.3 8578.1 1625.74 8577.29 1625.02C8576.49 1624.29 8575.84 1623.41 8575.38 1622.43C8574.49 1620.31 8574.47 1617.93 8575.32 1615.79C8576.17 1613.65 8577.81 1611.93 8579.91 1610.98C8592.38 1605.89 8605.9 1603.88 8619.31 1605.13C8632.72 1606.37 8645.64 1610.84 8656.96 1618.14C8657.87 1618.76 8658.65 1619.56 8659.25 1620.49C8659.86 1621.41 8660.27 1622.45 8660.47 1623.54C8660.67 1624.62 8660.65 1625.74 8660.42 1626.82C8660.18 1627.9 8659.74 1628.92 8659.1 1629.83C8657.9 1631.2 8656.32 1632.19 8654.57 1632.69Z">
                        </path>
                        <path fill="#263238"
                            d="M8398.63 1584.99C8397.36 1584.68 8396.21 1584.02 8395.3 1583.08C8394.5 1582.3 8393.87 1581.37 8393.44 1580.35C8393.01 1579.32 8392.79 1578.22 8392.79 1577.11C8392.79 1576 8393.01 1574.9 8393.44 1573.88C8393.87 1572.86 8394.5 1571.93 8395.3 1571.15C8404.44 1560.9 8415.82 1552.89 8428.57 1547.76C8441.31 1542.63 8455.06 1540.51 8468.76 1541.57C8469.86 1541.74 8470.91 1542.14 8471.85 1542.73C8472.79 1543.32 8473.6 1544.1 8474.22 1545.02C8474.85 1545.93 8475.28 1546.97 8475.49 1548.06C8475.7 1549.15 8475.68 1550.27 8475.44 1551.35C8474.93 1553.56 8473.63 1555.51 8471.78 1556.83C8469.94 1558.14 8467.68 1558.74 8465.42 1558.51C8454.58 1557.83 8443.73 1559.62 8433.69 1563.75C8423.65 1567.88 8414.68 1574.25 8407.46 1582.36C8406.37 1583.57 8404.97 1584.45 8403.42 1584.92C8401.86 1585.38 8400.2 1585.4 8398.63 1584.99Z">
                        </path>
                        <path fill="#E58A7B"
                            d="M9295.96 2559.83L9047.89 2493.76C9047.89 2493.76 8804.6 3092.69 8718.49 3131.57C8601.62 3185 8305.61 3370.09 8179.67 3457.63C8172.75 3487.44 8178.24 3566.4 8193.98 3588.1C8408.65 3548.98 8819.63 3390.84 8905.5 3310.46C9101.32 3127.04 9295.96 2559.83 9295.96 2559.83Z">
                        </path>
                        <path fill="#429CFD"
                            d="M9122.79 8465.18C9110.69 8466.14 9098.63 8462.85 9088.68 8455.88C9085.61 8453.11 9083.31 8449.58 9082.02 8445.65C9080.72 8441.72 9080.47 8437.52 9081.29 8433.46C9081.44 8430.93 9082.27 8428.48 9083.7 8426.38C9085.13 8424.28 9087.1 8422.61 9089.4 8421.53C9109.43 8411.28 9165.49 8446.82 9171.93 8450.87C9172.63 8451.31 9173.18 8451.96 9173.48 8452.74C9173.78 8453.51 9173.82 8454.37 9173.6 8455.17C9173.39 8456 9172.98 8456.76 9172.39 8457.39C9171.81 8458.02 9171.07 8458.48 9170.26 8458.74C9154.71 8462.56 9138.8 8464.72 9122.79 8465.18ZM9098.94 8427.97C9097.13 8427.57 9095.26 8427.57 9093.45 8427.97C9092.54 8428.44 9091.78 8429.16 9091.27 8430.05C9090.76 8430.94 9090.53 8431.96 9090.59 8432.98C9089.95 8435.76 9090.06 8438.65 9090.9 8441.37C9091.74 8444.1 9093.28 8446.55 9095.36 8448.49C9104.66 8456.84 9128.04 8457.79 9158.81 8451.83C9140.49 8439.76 9119.85 8431.64 9098.22 8427.97H9098.94Z">
                        </path>
                        <path fill="#429CFD"
                            d="M9169.06 8458.74C9168.44 8458.94 9167.78 8458.94 9167.16 8458.74C9149.27 8448.72 9115.64 8409.37 9120.64 8389.33C9121.39 8386.16 9123.19 8383.32 9125.74 8381.29C9128.29 8379.26 9131.45 8378.14 9134.72 8378.12C9137.92 8377.69 9141.17 8377.96 9144.26 8378.91C9147.35 8379.86 9150.2 8381.46 9152.61 8383.61C9172.4 8400.54 9173.6 8452.54 9173.6 8455.16C9173.71 8455.95 9173.56 8456.75 9173.17 8457.44C9172.79 8458.13 9172.18 8458.67 9171.45 8458.98C9170.65 8459.14 9169.82 8459.06 9169.06 8458.74ZM9137.1 8385.99H9135.43C9129.95 8385.99 9129.23 8389.09 9128.99 8390.29C9126.13 8401.97 9147.36 8431.79 9165.01 8445.86C9164.93 8425.71 9158.69 8406.07 9147.12 8389.57C9144.35 8387.16 9140.77 8385.88 9137.1 8385.99Z">
                        </path>
                        <path fill="#429CFD"
                            d="M8489.51 8435.37C8474.92 8440.46 8459.03 8440.46 8444.43 8435.37C8441.12 8433.57 8438.31 8430.97 8436.26 8427.8C8434.22 8424.63 8433.01 8421 8432.74 8417.24C8432.44 8414.88 8432.74 8412.49 8433.62 8410.27C8434.5 8408.06 8435.92 8406.11 8437.75 8404.6C8456.83 8387.42 8534.83 8404.6 8543.66 8407.94C8544.5 8408.15 8545.24 8408.65 8545.76 8409.34C8546.28 8410.04 8546.55 8410.89 8546.52 8411.75C8546.55 8412.65 8546.32 8413.53 8545.86 8414.3C8545.39 8415.06 8544.71 8415.67 8543.9 8416.05C8526.33 8423.98 8508.14 8430.44 8489.51 8435.37ZM8450.63 8406.98C8447.91 8407.53 8445.36 8408.76 8443.24 8410.56C8442.48 8411.13 8441.9 8411.9 8441.56 8412.79C8441.22 8413.68 8441.14 8414.64 8441.33 8415.57C8441.49 8418.07 8442.27 8420.5 8443.6 8422.62C8444.93 8424.75 8446.78 8426.51 8448.96 8427.74C8461.6 8434.41 8490.94 8429.17 8528.87 8413.19C8503.32 8406.74 8476.87 8404.65 8450.63 8406.98Z">
                        </path>
                        <path fill="#429CFD"
                            d="M8543.18 8416.05H8541.27C8517.42 8411.75 8469.71 8384.32 8468.28 8363.81C8468.28 8359.04 8470.43 8352.36 8481.88 8348.55C8485.75 8347.17 8489.85 8346.58 8493.95 8346.83C8498.05 8347.08 8502.06 8348.15 8505.73 8349.98C8531.49 8362.62 8545.09 8408.41 8545.8 8410.56C8545.97 8411.28 8545.95 8412.03 8545.74 8412.75C8545.53 8413.46 8545.14 8414.1 8544.61 8414.62C8544.26 8415.2 8543.76 8415.69 8543.18 8416.05ZM8486.65 8355.7H8484.27C8476.87 8358.32 8476.87 8361.43 8476.87 8362.38C8476.87 8374.78 8511.46 8397.44 8535.55 8405.08C8530 8385.92 8518.26 8369.14 8502.15 8357.37C8497.36 8354.93 8491.85 8354.34 8486.65 8355.7Z">
                        </path>
                        <path fill="#E58A7B"
                            d="M8199.95 3443.56L7951.17 3558.05L7922.3 3629.6L8014.14 3691.38C8014.14 3691.38 8185.87 3672.78 8234.77 3562.34L8199.95 3443.56Z">
                        </path>
                        <path fill="#263238"
                            d="M8210.44 3592.16C8204.88 3544.36 8189.1 3498.31 8164.17 3457.15L8203.52 3427.58C8233.13 3475 8252.01 3528.32 8258.86 3583.81L8210.44 3592.16Z">
                        </path>
                        <path fill="#263238"
                            d="M8252.9 3477.43C8258.16 3485.7 8260.74 3495.39 8260.3 3505.18C8259.85 3514.98 8256.4 3524.39 8250.42 3532.16C8244.43 3539.92 8236.2 3545.65 8226.84 3548.57C8217.48 3551.48 8207.45 3551.45 8198.12 3548.46C8188.78 3545.48 8180.59 3539.69 8174.66 3531.88C8168.73 3524.08 8165.34 3514.64 8164.97 3504.84C8164.6 3495.05 8167.25 3485.37 8172.57 3477.14C8177.89 3468.9 8185.62 3462.51 8194.7 3458.82C8204.89 3453.63 8216.73 3452.67 8227.62 3456.15C8238.52 3459.64 8247.61 3467.28 8252.9 3477.43Z">
                        </path>
                        <path fill="#E58A7B"
                            d="M7783.01 3650.6L7816.16 3683.99L8039.42 3588.58L7951.17 3558.05L7783.01 3650.6Z"></path>
                        <path fill="black"
                            d="M8741.63 8010.32C8743.06 8010.32 8775.5 8101.44 8775.5 8101.44L8445.39 8240.26L8393.39 8143.42L8741.63 8010.32Z"
                            opacity="0.2"></path>
                        <path fill="black"
                            d="M9416.41 8126C9417.84 8126 9427.38 8217.83 9427.38 8217.83H9065.78L9040.02 8112.41L9416.41 8126Z"
                            opacity="0.2"></path>
                        <path fill="#429CFD"
                            d="M9360.6 2491.13C9426.19 2702.7 9169.78 2992.03 9169.78 2992.03L8815.57 2847.49C8857.56 2725.2 8905.97 2605.22 8960.6 2488.03C9069.36 2253.56 9294.29 2277.66 9360.6 2491.13Z">
                        </path>
                        <path fill="black"
                            d="M9360.6 2491.13C9426.19 2702.7 9169.78 2992.03 9169.78 2992.03L8815.57 2847.49C8857.56 2725.2 8905.97 2605.22 8960.6 2488.03C9069.36 2253.56 9294.29 2277.66 9360.6 2491.13Z"
                            opacity="0.2"></path>
                        <path fill="#429CFD" d="M5840.95 371.381H5688.54V395.949H5840.95V371.381Z"></path>
                        <path fill="#429CFD"
                            d="M7813.97 1343.76L7795.52 1753.12L7820.07 1754.23L7838.51 1344.86L7813.97 1343.76Z">
                        </path>
                        <path fill="#429CFD" d="M7766.55 481.578H4951.98L4690.08 6342.57H7504.65L7766.55 481.578Z">
                        </path>
                        <path fill="#FAFAFA" d="M7682.59 562.199H4868.02L4606.12 6423.19H7420.69L7682.59 562.199Z"
                            opacity="0.56"></path>
                        <path fill="#429CFD" d="M7598.63 642.582H4784.06L4521.92 6503.57H7336.49L7598.63 642.582Z"
                            opacity="0.07"></path>
                        <path fill="white" d="M7278.29 3198.83H4875.89L4855.85 3647.26H7258.26L7278.29 3198.83Z"></path>
                        <path fill="#429CFD" d="M6197.07 2871.58H4890.44L4881.61 3072.18H6188.24L6197.07 2871.58Z">
                        </path>
                        <path fill="white" d="M7224.15 4409.1H4821.74L4801.71 4857.52H7204.11L7224.15 4409.1Z"></path>
                        <path fill="#429CFD" d="M6783.6 5463.13H5168.08L5143.99 6000.53H6759.51L6783.6 5463.13Z"
                            opacity="0.47"></path>
                        <path fill="white"
                            d="M6675.54 6084.01H5060.03C5059.32 6084.19 5058.59 6084.19 5057.88 6084.01C5057.65 6083.31 5057.65 6082.56 5057.88 6081.86L5081.73 5544.23C5081.73 5543.86 5081.81 5543.5 5081.95 5543.17C5082.1 5542.83 5082.31 5542.53 5082.58 5542.29C5082.85 5542.04 5083.17 5541.85 5083.52 5541.73C5083.86 5541.62 5084.23 5541.57 5084.6 5541.61H6700.11C6700.41 5541.46 6700.74 5541.38 6701.07 5541.38C6701.4 5541.38 6701.72 5541.46 6702.02 5541.61C6702.19 5541.9 6702.28 5542.23 6702.28 5542.56C6702.28 5542.9 6702.19 5543.22 6702.02 5543.51L6678.65 6082.34C6678.36 6082.9 6677.91 6083.36 6677.35 6083.66C6676.8 6083.95 6676.17 6084.08 6675.54 6084.01ZM5062.89 6078.28H6672.68L6696.53 5546.38H5086.74L5062.89 6078.28Z">
                        </path>
                        <path fill="#429CFD" d="M5914.89 4081.85H4836.29L4827.47 4282.68H5905.83L5914.89 4081.85Z">
                        </path>
                        <path fill="white"
                            d="M6752.83 1750.28C6746.66 1880.79 6700.25 2006.19 6619.97 2109.26C6560.54 2187.12 6484.06 2250.32 6396.41 2294.03C6308.75 2337.73 6212.25 2360.77 6114.3 2361.38C6035.15 2361.98 5956.72 2346.38 5883.83 2315.52C5810.94 2284.66 5745.14 2239.21 5690.48 2181.96C5635.82 2124.71 5593.46 2056.87 5566.01 1982.63C5538.56 1908.39 5526.61 1829.32 5530.87 1750.28C5539.26 1586.28 5609.99 1431.67 5728.59 1318.08C5847.19 1204.49 6004.7 1140.49 6168.92 1139.19C6248.13 1138.45 6326.65 1153.96 6399.63 1184.76C6472.61 1215.57 6538.49 1261.01 6593.22 1318.28C6647.94 1375.55 6690.34 1443.44 6717.79 1517.74C6745.24 1592.05 6757.17 1671.19 6752.83 1750.28Z">
                        </path>
                        <path fill="#429CFD"
                            d="M6810.31 1267.03C6808.75 1301.74 6796.41 1335.09 6775.01 1362.44C6759.17 1383.12 6738.82 1399.91 6715.5 1411.53C6692.19 1423.14 6666.53 1429.28 6640.48 1429.47C6615.25 1429.62 6590.36 1423.59 6567.99 1411.91C6545.62 1400.23 6526.45 1383.24 6512.16 1362.44C6493.23 1334.34 6483.86 1300.88 6485.44 1267.03C6487.75 1223.49 6506.58 1182.46 6538.09 1152.33C6569.6 1122.19 6611.43 1105.2 6655.03 1104.84C6676.07 1104.65 6696.92 1108.76 6716.3 1116.94C6735.69 1125.11 6753.19 1137.17 6767.74 1152.36C6782.29 1167.56 6793.57 1185.57 6800.89 1205.29C6808.21 1225.01 6811.42 1246.03 6810.31 1267.03Z">
                        </path>
                        <path fill="#263238"
                            d="M5134.69 3423.05C5133.54 3442.27 5125.15 3460.34 5111.21 3473.62C5097.26 3486.9 5078.8 3494.4 5059.55 3494.6C5050.25 3494.71 5041.03 3492.92 5032.46 3489.32C5023.89 3485.73 5016.14 3480.41 5009.7 3473.71C5003.26 3467 4998.27 3459.04 4995.03 3450.33C4991.79 3441.62 4990.37 3432.33 4990.86 3423.05C4991.89 3403.79 5000.25 3385.65 5014.21 3372.35C5028.18 3359.04 5046.7 3351.58 5065.99 3351.49C5075.28 3351.41 5084.48 3353.23 5093.04 3356.84C5101.6 3360.45 5109.33 3365.76 5115.76 3372.46C5122.19 3379.16 5127.19 3387.1 5130.44 3395.8C5133.7 3404.5 5135.14 3413.77 5134.69 3423.05Z">
                        </path>
                        <path fill="#263238"
                            d="M5456.21 3423.04C5455.12 3442.28 5446.75 3460.39 5432.8 3473.68C5418.84 3486.97 5400.35 3494.45 5381.08 3494.6C5371.8 3494.68 5362.61 3492.86 5354.06 3489.25C5345.52 3485.64 5337.8 3480.32 5331.39 3473.62C5324.97 3466.91 5320 3458.97 5316.77 3450.27C5313.55 3441.57 5312.14 3432.31 5312.62 3423.04C5313.66 3403.82 5321.98 3385.72 5335.89 3372.43C5349.81 3359.13 5368.27 3351.64 5387.52 3351.49C5396.82 3351.38 5406.04 3353.17 5414.61 3356.77C5423.18 3360.36 5430.93 3365.68 5437.37 3372.38C5443.81 3379.09 5448.8 3387.05 5452.04 3395.76C5455.29 3404.47 5456.7 3413.76 5456.21 3423.04Z">
                        </path>
                        <path fill="#263238"
                            d="M5777.98 3423.04C5776.89 3442.28 5768.52 3460.39 5754.56 3473.68C5740.61 3486.97 5722.12 3494.45 5702.85 3494.6C5693.56 3494.68 5684.36 3492.86 5675.8 3489.25C5667.24 3485.64 5659.51 3480.33 5653.08 3473.63C5646.65 3466.93 5641.65 3458.99 5638.4 3450.29C5635.14 3441.59 5633.7 3432.32 5634.15 3423.04C5635.24 3403.8 5643.62 3385.7 5657.57 3372.41C5671.53 3359.12 5690.02 3351.64 5709.29 3351.49C5718.58 3351.38 5727.8 3353.17 5736.38 3356.77C5744.95 3360.36 5752.7 3365.68 5759.14 3372.38C5765.58 3379.09 5770.57 3387.05 5773.81 3395.76C5777.05 3404.47 5778.47 3413.76 5777.98 3423.04Z">
                        </path>
                        <path fill="#263238"
                            d="M5080.54 4633.31C5079.4 4652.53 5071.01 4670.6 5057.06 4683.88C5043.12 4697.16 5024.66 4704.66 5005.41 4704.87C4996.12 4704.94 4986.92 4703.12 4978.36 4699.52C4969.8 4695.91 4962.07 4690.6 4955.64 4683.9C4949.2 4677.2 4944.21 4669.25 4940.95 4660.56C4937.7 4651.86 4936.26 4642.59 4936.71 4633.31C4937.8 4614.07 4946.17 4595.97 4960.13 4582.68C4974.08 4569.39 4992.58 4561.91 5011.85 4561.75C5021.13 4561.68 5030.34 4563.5 5038.9 4567.11C5047.45 4570.71 5055.19 4576.03 5061.62 4582.73C5068.05 4589.43 5073.04 4597.37 5076.3 4606.07C5079.55 4614.76 5081 4624.04 5080.54 4633.31Z">
                        </path>
                        <path fill="#263238"
                            d="M5402.07 4633.31C5400.98 4652.51 5392.64 4670.58 5378.74 4683.87C5364.83 4697.15 5346.4 4704.66 5327.17 4704.87C5317.88 4704.98 5308.66 4703.18 5300.08 4699.59C5291.51 4695.99 5283.76 4690.68 5277.32 4683.97C5270.89 4677.26 5265.89 4669.31 5262.65 4660.59C5259.41 4651.88 5257.99 4642.6 5258.48 4633.31C5259.57 4614.07 5267.94 4595.97 5281.9 4582.68C5295.85 4569.39 5314.34 4561.91 5333.61 4561.75C5342.89 4561.68 5352.08 4563.5 5360.63 4567.11C5369.18 4570.72 5376.89 4576.04 5383.31 4582.74C5389.72 4589.44 5394.69 4597.39 5397.92 4606.08C5401.15 4614.78 5402.56 4624.05 5402.07 4633.31Z">
                        </path>
                        <path fill="#263238"
                            d="M5724.55 4633.31C5723.46 4652.55 5715.09 4670.66 5701.13 4683.95C5687.18 4697.24 5668.69 4704.72 5649.42 4704.87C5640.14 4704.91 5630.95 4703.07 5622.41 4699.45C5613.87 4695.83 5606.15 4690.51 5599.73 4683.82C5593.3 4677.13 5588.3 4669.2 5585.04 4660.52C5581.77 4651.84 5580.3 4642.58 5580.72 4633.31C5581.87 4614.09 5590.26 4596.02 5604.2 4582.74C5618.15 4569.46 5636.6 4561.96 5655.86 4561.75C5665.15 4561.64 5674.37 4563.44 5682.95 4567.04C5691.52 4570.63 5699.27 4575.94 5705.71 4582.65C5712.15 4589.36 5717.14 4597.31 5720.38 4606.03C5723.62 4614.74 5725.04 4624.03 5724.55 4633.31Z">
                        </path>
                        <path fill="#263238"
                            d="M6045.61 4633.31C6044.46 4652.53 6036.07 4670.6 6022.13 4683.88C6008.18 4697.16 5989.72 4704.66 5970.47 4704.87C5961.19 4704.91 5952 4703.07 5943.46 4699.45C5934.92 4695.83 5927.2 4690.51 5920.78 4683.82C5914.35 4677.13 5909.36 4669.2 5906.09 4660.52C5902.82 4651.83 5901.36 4642.58 5901.78 4633.31C5902.92 4614.09 5911.31 4596.02 5925.25 4582.74C5939.2 4569.46 5957.66 4561.96 5976.91 4561.75C5986.2 4561.68 5995.4 4563.5 6003.96 4567.11C6012.52 4570.71 6020.25 4576.03 6026.68 4582.73C6033.11 4589.43 6038.11 4597.37 6041.36 4606.07C6044.62 4614.76 6046.06 4624.04 6045.61 4633.31Z">
                        </path>
                        <path fill="#263238"
                            d="M6368.57 4633.31C6367.42 4652.53 6359.03 4670.6 6345.09 4683.88C6331.14 4697.16 6312.68 4704.66 6293.43 4704.87C6284.13 4704.98 6274.91 4703.18 6266.34 4699.59C6257.77 4695.99 6250.02 4690.68 6243.58 4683.97C6237.14 4677.26 6232.15 4669.31 6228.91 4660.59C6225.67 4651.88 6224.25 4642.6 6224.74 4633.31C6225.83 4614.07 6234.2 4595.97 6248.15 4582.68C6262.11 4569.39 6280.6 4561.91 6299.87 4561.75C6309.16 4561.68 6318.36 4563.5 6326.92 4567.11C6335.48 4570.71 6343.21 4576.03 6349.64 4582.73C6356.07 4589.43 6361.07 4597.37 6364.32 4606.07C6367.58 4614.76 6369.02 4624.04 6368.57 4633.31Z">
                        </path>
                        <path fill="#429CFD"
                            d="M6319.75 1718.46C6419.58 1620.83 6424.88 1464.34 6331.58 1368.93C6238.28 1273.52 6081.71 1275.32 5981.88 1372.95C5882.05 1470.58 5876.75 1627.07 5970.05 1722.48C6063.35 1817.88 6219.91 1816.08 6319.75 1718.46Z">
                        </path>
                        <path fill="#429CFD"
                            d="M6619.97 2109.26C6560.54 2187.12 6484.06 2250.32 6396.41 2294.03C6308.75 2337.73 6212.24 2360.77 6114.3 2361.38C6019.32 2362.18 5925.6 2339.61 5841.41 2295.64C5757.22 2251.67 5685.14 2187.66 5631.53 2109.26C5747.45 1993.81 5930.88 1918.44 6134.1 1918.44C6337.32 1918.44 6514.3 1993.81 6619.97 2109.26Z">
                        </path>
                        <path fill="white"
                            d="M6319.75 1718.46C6419.58 1620.83 6424.88 1464.34 6331.58 1368.93C6238.28 1273.52 6081.71 1275.32 5981.88 1372.95C5882.05 1470.58 5876.75 1627.07 5970.05 1722.48C6063.35 1817.88 6219.91 1816.08 6319.75 1718.46Z"
                            opacity="0.1"></path>
                        <path fill="white"
                            d="M6619.97 2109.26C6560.54 2187.12 6484.06 2250.32 6396.41 2294.03C6308.75 2337.73 6212.24 2360.77 6114.3 2361.38C6019.32 2362.18 5925.6 2339.61 5841.41 2295.64C5757.22 2251.67 5685.14 2187.66 5631.53 2109.26C5747.45 1993.81 5930.88 1918.44 6134.1 1918.44C6337.32 1918.44 6514.3 1993.81 6619.97 2109.26Z"
                            opacity="0.1"></path>
                        <path fill="#E58A7B"
                            d="M3110.58 3755.31C3087.92 3804.92 3064.07 3859.54 3043.32 3912.49C3022.56 3965.45 3001.34 4020.07 2982.97 4074.45C2945.47 4181.63 2916.91 4291.72 2897.58 4403.61L2892.33 4438.68C2891.83 4444.69 2892.4 4450.75 2894 4456.57C2899.63 4476.33 2908.5 4495.03 2920.24 4511.9C2950.87 4555.57 2986.4 4595.58 3026.14 4631.16C3068.04 4670.14 3111.99 4706.84 3157.81 4741.12C3203.6 4776.42 3251.79 4810.77 3299.25 4843.21L3254.65 4926.93C3141.31 4877.55 3033.72 4815.88 2933.83 4743.03C2880.54 4704.17 2832.45 4658.63 2790.72 4607.55C2765.99 4577.14 2746.7 4542.68 2733.71 4505.7C2726.16 4482.6 2722.3 4458.45 2722.26 4434.14C2722.26 4428.42 2722.26 4420.07 2722.26 4416.02V4404.33L2724.65 4380.48C2738.32 4256.21 2764.45 4133.63 2802.65 4014.58C2821.25 3955.91 2841.05 3897.47 2863.71 3840.46C2886.37 3783.45 2909.74 3727.64 2938.6 3669.68L3110.58 3755.31Z">
                        </path>
                        <path fill="#E58A7B"
                            d="M3265.62 4828.42L3434.25 4743.03L3390.61 4928.12C3390.61 4928.12 3274.92 4960.56 3221.25 4904.27L3265.62 4828.42Z">
                        </path>
                        <path fill="#E58A7B"
                            d="M3588.58 4773.32L3543.74 4926.46L3390.61 4928.12L3434.26 4743.03L3588.58 4773.32Z">
                        </path>
                        <path fill="#DF5753"
                            d="M3826.63 2862.28C3835.65 2895.33 3848.2 2927.32 3864.07 2957.69C3859.44 2962.95 3853.46 2966.85 3846.79 2968.99C3840.11 2971.14 3832.98 2971.43 3826.15 2969.85L3826.63 2862.28Z">
                        </path>
                        <path fill="#263238"
                            d="M3821.62 2863.71C3831.5 2863.71 3839.51 2851.43 3839.51 2836.28C3839.51 2821.13 3831.5 2808.85 3821.62 2808.85C3811.74 2808.85 3803.73 2821.13 3803.73 2836.28C3803.73 2851.43 3811.74 2863.71 3821.62 2863.71Z">
                        </path>
                        <path fill="#263238"
                            d="M3816.37 2809.8L3852.62 2799.54C3852.62 2799.54 3834.97 2827.69 3816.37 2809.8Z"></path>
                        <path fill="#E58A7B"
                            d="M3360.79 3037.35C3382.49 3148.27 3404.2 3351.73 3326.44 3425.91C3326.44 3425.91 3356.97 3538.49 3563.3 3538.49C3790.13 3538.49 3671.58 3425.91 3671.58 3425.91C3547.79 3396.33 3550.89 3304.5 3572.6 3218.15L3360.79 3037.35Z">
                        </path>
                        <path fill="#E58A7B"
                            d="M3300.44 2784.52C3311.89 2969.85 3312.85 3048.56 3406.35 3143.73C3547.31 3286.85 3772.48 3232.47 3816.61 3048.33C3856.44 2881.36 3831.16 2606.58 3649.64 2532.88C3609.8 2516.46 3566.42 2510.49 3523.63 2515.51C3480.83 2520.53 3440.02 2536.39 3405.06 2561.58C3370.1 2586.78 3342.14 2620.47 3323.84 2659.48C3305.53 2698.49 3297.48 2741.53 3300.44 2784.52Z">
                        </path>
                        <path fill="#263238"
                            d="M3318.81 2576.05C3225.79 2609.92 3101.75 2584.64 3150.41 2871.58C3201.93 3175.46 3122.74 3275.4 3122.74 3275.4C3122.74 3275.4 3475.52 3350.53 3835.69 3270.87C3835.69 3270.87 3725.73 3078.62 3756.5 2936.94C3795.86 2758.04 3764.85 2691.97 3764.85 2691.97C3764.85 2691.97 3449.52 2528.35 3318.81 2576.05Z">
                        </path>
                        <path fill="#E58A7B"
                            d="M3712.37 2881.12C3712.47 2916.36 3722.56 2950.85 3741.47 2980.58C3766.76 3019.22 3796.57 3004.44 3803.97 2963.41C3810.64 2927.39 3805.64 2863.71 3773.43 2838.9C3741.23 2814.09 3712.85 2838.42 3712.37 2881.12Z">
                        </path>
                        <path fill="#263238"
                            d="M3237.95 2607.3C3211.24 2532.16 3338.61 2416.48 3608.14 2464.18C3877.67 2511.89 3889.36 2736.34 3889.36 2736.34L3834.97 2671.46L3837.36 2739.68L3560.43 2792.87L3237.95 2607.3Z">
                        </path>
                        <path fill="#429CFD"
                            d="M3260.85 3438.55C3259.26 3427.66 3261.98 3416.58 3268.44 3407.66C3274.9 3398.75 3284.59 3392.72 3295.43 3390.84C3379.39 3377.01 3570.21 3348.86 3666.1 3362.22C3737.66 3372.24 3756.26 3413.74 3759.36 3447.85C3759.85 3453.82 3759.05 3459.83 3757.02 3465.47C3754.99 3471.11 3751.78 3476.24 3747.6 3480.54C3743.42 3484.83 3738.37 3488.18 3732.78 3490.36C3727.2 3492.54 3721.22 3493.5 3715.23 3493.17L3300.68 3474.56C3290.91 3474.07 3281.61 3470.22 3274.35 3463.65C3267.09 3457.09 3262.32 3448.22 3260.85 3438.55Z">
                        </path>
                        <path fill="black"
                            d="M3260.85 3438.55C3259.26 3427.66 3261.98 3416.58 3268.44 3407.66C3274.9 3398.75 3284.59 3392.72 3295.43 3390.84C3379.39 3377.01 3570.21 3348.86 3666.1 3362.22C3737.66 3372.24 3756.26 3413.74 3759.36 3447.85C3759.85 3453.82 3759.05 3459.83 3757.02 3465.47C3754.99 3471.11 3751.78 3476.24 3747.6 3480.54C3743.42 3484.83 3738.37 3488.18 3732.78 3490.36C3727.2 3492.54 3721.22 3493.5 3715.23 3493.17L3300.68 3474.56C3290.91 3474.07 3281.61 3470.22 3274.35 3463.65C3267.09 3457.09 3262.32 3448.22 3260.85 3438.55Z"
                            opacity="0.6"></path>
                        <path fill="#E58A7B"
                            d="M3500.56 7605.55L3654.41 7712.41L3911.78 7363.45L3757.93 7256.83L3500.56 7605.55Z">
                        </path>
                        <path fill="#E58A7B"
                            d="M3141.83 7598.63L3304.26 7691.18L3532.05 7322.18L3369.61 7229.63L3141.83 7598.63Z">
                        </path>
                        <path fill="#CF6F64"
                            d="M3911.54 7363.45L3778.92 7543.29L3625.07 7436.67L3757.69 7256.83L3911.54 7363.45Z">
                        </path>
                        <path fill="#CF6F64"
                            d="M3369.38 7229.63L3532.05 7322.42L3414.7 7512.52L3252.02 7419.74L3369.38 7229.63Z"></path>
                        <path fill="#429CFD"
                            d="M3630.32 4603.5C3630.32 4603.5 4230.92 5360.33 4118.1 6084.25C4027.22 6668.87 3500.09 7460.53 3500.09 7460.53L3252.26 7337.45C3426.94 6987.42 3576.01 6625.19 3698.3 6253.6C3736.01 6138.23 3747.02 6015.81 3730.49 5895.57C3713.96 5775.32 3670.33 5660.41 3602.89 5559.5C3298.54 5115.13 2810.99 5379.65 3138.96 4603.5H3630.32Z">
                        </path>
                        <path fill="black"
                            d="M3630.32 4603.5C3630.32 4603.5 4230.92 5360.33 4118.1 6084.25C4027.22 6668.87 3500.09 7460.53 3500.09 7460.53L3252.26 7337.45C3426.94 6987.42 3576.01 6625.19 3698.3 6253.6C3736.01 6138.23 3747.02 6015.81 3730.49 5895.57C3713.96 5775.32 3670.33 5660.41 3602.89 5559.5C3298.54 5115.13 2810.99 5379.65 3138.96 4603.5H3630.32Z"
                            opacity="0.6"></path>
                        <path fill="black"
                            d="M3924.9 5089.61L3837.6 5002.78C3837.6 5009.7 4006.71 6053.72 4054.18 6347.1C4082.19 6261.39 4103.64 6173.68 4118.34 6084.72C4174.15 5729.56 4057.52 5366.77 3924.9 5089.61Z"
                            opacity="0.4"></path>
                        <path fill="#429CFD"
                            d="M3898.42 4603.5C3898.42 4603.5 4621.62 5554.73 4642.14 6125.03C4659.07 6602.08 3855.01 7526.36 3855.01 7526.36L3621.26 7375.13C3621.26 7375.13 4091.86 6718.72 4210.41 6182.52C4164.61 5651.09 3196.21 4603.5 3196.21 4603.5H3898.42Z">
                        </path>
                        <path fill="black"
                            d="M3898.42 4603.5C3898.42 4603.5 4621.62 5554.73 4642.14 6125.03C4659.07 6602.08 3855.01 7526.36 3855.01 7526.36L3621.26 7375.13C3621.26 7375.13 4091.86 6718.72 4210.41 6182.52C4164.61 5651.09 3196.21 4603.5 3196.21 4603.5H3898.42Z"
                            opacity="0.6"></path>
                        <path fill="#429CFD"
                            d="M3003.72 3468.36C2926.44 3486.73 2852.26 3767.71 2852.26 3767.71L3154.47 3969.5C3154.47 3969.5 3255.12 3747.2 3219.82 3649.88C3183.33 3548.51 3100.8 3445.23 3003.72 3468.36Z">
                        </path>
                        <path fill="black"
                            d="M3062.87 3649.4L3041.88 3894.37L3154.23 3969.74C3185.25 3899.9 3208.22 3826.76 3222.69 3751.73L3062.87 3649.4Z"
                            opacity="0.2"></path>
                        <path fill="#429CFD"
                            d="M3987.87 3473.85C3987.87 3473.85 4077.07 3505.1 3898.42 4603.26H3138.49C3151.37 4293.18 3151.6 4102.36 3003.72 3468.36C3110.13 3446.44 3217.98 3432.25 3326.44 3425.91C3441.34 3417.67 3556.68 3417.67 3671.59 3425.91C3819.95 3439.5 3987.87 3473.85 3987.87 3473.85Z">
                        </path>
                        <path fill="#E58A7B"
                            d="M4065.15 3649.4C4082.32 3697.11 4100.45 3748.39 4119.53 3797.76C4138.61 3847.14 4156.74 3897.94 4176.06 3948.03L4234.5 4097.83L4249.29 4135.27L4256.92 4153.88L4260.5 4163.18C4260.5 4164.85 4260.5 4164.85 4260.5 4164.61C4256.14 4158.47 4250.43 4153.41 4243.8 4149.82C4234.37 4144.27 4223.73 4141.08 4212.79 4140.52C4203.71 4140.24 4194.67 4141.95 4186.32 4145.53C4175.35 4150.54 4175.35 4152.69 4175.58 4152.45C4177.57 4150.86 4179.33 4149.01 4180.83 4146.96C4194.04 4129.63 4205.46 4111.01 4214.94 4091.39C4226.15 4069.44 4236.88 4046.07 4247.62 4022.45C4268.61 3974.75 4287.93 3925.37 4307.25 3875.52C4326.57 3825.67 4344.94 3775.34 4362.82 3724.54L4417.21 3572.36L4509.04 3596.21C4490.91 3704.98 4467.54 3810.88 4439.39 3918.69C4425.79 3972.36 4409.81 4025.55 4391.69 4079.22C4382.62 4106.17 4372.6 4132.89 4361.15 4160.32C4349.22 4190.09 4334.53 4218.68 4317.27 4245.71C4310.92 4254.81 4303.91 4263.42 4296.28 4271.47C4284.1 4284.63 4269.31 4295.1 4252.87 4302.24C4238.27 4308.51 4222.46 4311.44 4206.59 4310.83C4188.81 4310.16 4171.5 4304.99 4156.26 4295.8C4138.29 4284.59 4123.38 4269.1 4112.85 4250.72C4109.27 4244.52 4106.17 4238.32 4104.03 4233.78L4099.5 4224.72L4090.43 4206.11L4072.3 4169.14C4048.45 4119.53 4024.6 4069.44 4003.85 4019.11C3983.1 3968.78 3961.15 3917.74 3940.64 3866.46C3920.13 3815.18 3901.76 3763.89 3884.35 3708.56L4065.15 3649.4Z">
                        </path>
                        <path fill="#429CFD"
                            d="M3987.87 3473.85C4079.22 3495.56 4182.03 3765.56 4182.03 3765.56L3910.35 3996.69C3910.35 3996.69 3734.56 3702.36 3770.1 3605.28C3807.07 3504.14 3868.61 3445.47 3987.87 3473.85Z">
                        </path>
                        <path fill="#E58A7B"
                            d="M4460.38 3486.97L4555.79 3407.3L4622.1 3510.58L4573.2 3596.69C4573.2 3596.69 4495.44 3668.25 4426.75 3631.75C4415.85 3607.25 4413.23 3579.85 4419.3 3553.72C4425.37 3527.6 4439.79 3504.16 4460.38 3486.97Z">
                        </path>
                        <path fill="#E58A7B"
                            d="M4728 3407.54L4720.85 3433.54L4569.86 3458.82L4555.07 3407.3L4728 3407.54Z"></path>
                        <path fill="#429CFD"
                            d="M3873.61 7538.52L3601.22 7362.49L3650.12 7277.58L3956.14 7465.77L3873.61 7538.52Z">
                        </path>
                        <path fill="#263238"
                            d="M3410.88 7678.77C3386.98 7675.85 3364.02 7667.71 3343.62 7654.92C3342.77 7654.63 3342.04 7654.08 3341.53 7653.35C3341.01 7652.63 3340.73 7651.76 3340.73 7650.87C3340.73 7649.98 3341.01 7649.11 3341.53 7648.38C3342.04 7647.65 3342.77 7647.1 3343.62 7646.81C3351.01 7644.43 3415.17 7624.63 3433.78 7639.89C3435.87 7641.63 3437.46 7643.9 3438.38 7646.46C3439.3 7649.01 3439.53 7651.77 3439.02 7654.44C3438.69 7658.74 3437.27 7662.88 3434.89 7666.47C3432.51 7670.06 3429.25 7672.98 3425.43 7674.96C3420.96 7677.4 3415.97 7678.71 3410.88 7678.77ZM3357.21 7652.54C3387.03 7667.8 3410.88 7673.29 3422.33 7667.56C3424.82 7666.18 3426.92 7664.19 3428.42 7661.76C3429.93 7659.34 3430.78 7656.58 3430.92 7653.73C3430.92 7649.91 3430.92 7648.24 3428.77 7647.29C3418.75 7639.18 3382.97 7645.38 3356.73 7652.54H3357.21Z">
                        </path>
                        <path fill="#263238"
                            d="M3345.29 7656.59C3344.03 7656.57 3342.83 7656.06 3341.95 7655.16C3341.59 7654.5 3341.41 7653.76 3341.41 7653.01C3341.41 7652.26 3341.59 7651.53 3341.95 7650.87C3341.95 7648.72 3357.45 7596.96 3381.78 7585.27C3384.89 7583.85 3388.26 7583.12 3391.68 7583.12C3395.09 7583.12 3398.47 7583.85 3401.58 7585.27C3404.93 7586.33 3407.83 7588.48 3409.81 7591.37C3411.8 7594.27 3412.77 7597.75 3412.55 7601.25C3410.88 7622.72 3367.23 7652.3 3347.19 7657.31L3345.29 7656.59ZM3391.56 7591.47C3389.24 7591.55 3386.96 7592.11 3384.88 7593.14C3370.09 7600.3 3357.93 7628.21 3351.96 7645.14C3372.95 7636.32 3401.82 7612.94 3402.77 7599.82C3402.77 7597.67 3402.77 7595.05 3397.28 7592.67C3395.5 7591.71 3393.56 7591.06 3391.56 7590.76V7591.47Z">
                        </path>
                        <path fill="#263238"
                            d="M3751.25 7781.81C3724.3 7781.81 3686.85 7747.23 3666.34 7726C3665.81 7725.27 3665.53 7724.39 3665.53 7723.5C3665.53 7722.6 3665.81 7721.72 3666.34 7720.99C3666.81 7720.22 3667.48 7719.6 3668.28 7719.18C3669.07 7718.76 3669.97 7718.56 3670.87 7718.61C3680.41 7718.61 3763.18 7731.01 3774.87 7754.38C3776.1 7756.48 3776.76 7758.87 3776.76 7761.3C3776.76 7763.74 3776.1 7766.12 3774.87 7768.22C3773.11 7771.86 3770.46 7774.99 3767.17 7777.33C3763.87 7779.67 3760.04 7781.13 3756.02 7781.58L3751.25 7781.81ZM3682.08 7729.34C3712.13 7758.44 3738.61 7774.66 3753.64 7772.75C3756.27 7772.41 3758.78 7771.42 3760.94 7769.88C3763.1 7768.34 3764.85 7766.3 3766.04 7763.93C3766.57 7763.11 3766.86 7762.16 3766.86 7761.18C3766.86 7760.21 3766.57 7759.25 3766.04 7758.44C3759.84 7745.56 3715.71 7734.59 3682.08 7729.34Z">
                        </path>
                        <path fill="#263238"
                            d="M3684.7 7728.15C3679.35 7728.3 3673.99 7727.9 3668.72 7726.96C3667.99 7726.85 3667.29 7726.55 3666.71 7726.09C3666.12 7725.63 3665.67 7725.02 3665.38 7724.33C3665.03 7723.63 3664.84 7722.85 3664.84 7722.07C3664.84 7721.28 3665.03 7720.5 3665.38 7719.8C3666.81 7718.13 3699.02 7679.25 3729.55 7676.63C3738.19 7675.96 3746.75 7678.7 3753.4 7684.26C3762.7 7692.37 3762.22 7699.53 3759.84 7704.06C3753.88 7720.28 3712.61 7728.15 3684.7 7728.15ZM3678.5 7719.32C3705.22 7720.75 3747.91 7711.93 3753.4 7700.24C3753.4 7700.24 3755.31 7696.42 3749.11 7691.18C3746.64 7689.03 3743.75 7687.42 3740.64 7686.43C3737.52 7685.45 3734.23 7685.11 3730.98 7685.45C3710.41 7691.19 3692.1 7703.1 3678.5 7719.56V7719.32Z">
                        </path>
                        <path fill="#429CFD"
                            d="M3351.73 7630.83L3149.46 7573.58C3145.97 7572.53 3142.22 7572.8 3138.92 7574.34C3135.62 7575.88 3133 7578.58 3131.57 7581.93L3063.35 7735.3C3061.75 7739.23 3061 7743.45 3061.14 7747.69C3061.29 7751.93 3062.33 7756.09 3064.2 7759.9C3066.07 7763.71 3068.73 7767.08 3071.99 7769.79C3075.26 7772.49 3079.06 7774.48 3083.15 7775.61C3154.71 7794.22 3189.05 7799.47 3278.02 7824.99C3332.88 7840.25 3411.12 7868.64 3486.73 7890.1C3562.34 7911.57 3587.62 7837.87 3558.29 7822.13C3425.67 7752 3415.17 7702.86 3378.92 7650.39C3372.42 7640.89 3362.8 7633.96 3351.73 7630.83Z">
                        </path>
                        <path fill="#429CFD"
                            d="M3671.82 7698.09L3499.13 7578.83C3496.21 7576.7 3492.6 7575.71 3488.99 7576.07C3485.39 7576.42 3482.04 7578.08 3479.57 7580.74L3365.08 7703.82C3362.29 7707 3360.21 7710.74 3358.98 7714.78C3357.75 7718.83 3357.39 7723.1 3357.93 7727.29C3358.47 7731.49 3359.9 7735.52 3362.12 7739.12C3364.34 7742.73 3367.3 7745.81 3370.81 7748.18C3431.63 7788.97 3463.12 7805.43 3539.21 7858.14C3586.91 7890.58 3679.22 7962.61 3743.62 8007.46C3808.02 8052.3 3855.96 7990.76 3833.07 7966.43C3730.5 7856.95 3708.08 7788.25 3691.14 7726C3688.2 7714.71 3681.36 7704.82 3671.82 7698.09Z">
                        </path>
                        <path fill="#429CFD"
                            d="M3531.81 7476.27L3220.54 7321.46L3252.74 7237.03L3585.24 7400.18L3531.81 7476.27Z">
                        </path>
                        <path fill="#429CFD"
                            d="M3127.04 4558.65L3100.8 4627.35C3098.18 4632.6 3104.38 4638.08 3113.2 4638.08H3902.24C3909.15 4638.08 3914.88 4634.74 3915.36 4630.45L3922.03 4562.23C3922.03 4557.7 3916.55 4553.64 3909.15 4553.64H3139.44C3137.12 4553.43 3134.79 4553.77 3132.63 4554.64C3130.47 4555.51 3128.55 4556.89 3127.04 4558.65Z">
                        </path>
                        <path fill="white"
                            d="M3127.04 4558.65L3100.8 4627.35C3098.18 4632.6 3104.38 4638.08 3113.2 4638.08H3902.24C3909.15 4638.08 3914.88 4634.74 3915.36 4630.45L3922.03 4562.23C3922.03 4557.7 3916.55 4553.64 3909.15 4553.64H3139.44C3137.12 4553.43 3134.79 4553.77 3132.63 4554.64C3130.47 4555.51 3128.55 4556.89 3127.04 4558.65Z"
                            opacity="0.4"></path>
                        <path fill="#429CFD"
                            d="M3251.31 4644.76H3230.56C3226.5 4644.76 3223.4 4642.61 3223.64 4639.99L3233.42 4551.5C3233.42 4549.11 3237.23 4546.96 3241.29 4546.96H3262.04C3266.1 4546.96 3269.2 4549.11 3268.96 4551.5L3259.18 4639.99C3258.94 4642.61 3255.36 4644.76 3251.31 4644.76Z">
                        </path>
                        <path fill="#429CFD"
                            d="M3737.89 4644.76H3717.38C3713.33 4644.76 3710.23 4642.61 3710.46 4639.99L3720.01 4551.5C3720.01 4549.11 3724.06 4546.96 3728.11 4546.96H3748.63C3752.68 4546.96 3756.02 4549.11 3755.54 4551.5L3746 4639.99C3744.81 4642.61 3742.19 4644.76 3737.89 4644.76Z">
                        </path>
                        <g style="mix-blend-mode:multiply">
                            <path fill="#F5F5F5"
                                d="M3233.18 8684.15C3586.09 8684.15 3872.18 8663.43 3872.18 8637.88C3872.18 8612.32 3586.09 8591.6 3233.18 8591.6C2880.27 8591.6 2594.18 8612.32 2594.18 8637.88C2594.18 8663.43 2880.27 8684.15 3233.18 8684.15Z">
                            </path>
                        </g>
                        <path fill="#E0E0E0"
                            d="M3622.45 8572.52C3509.39 8539.6 3383.93 8497.38 3308.08 8453.26C3305.93 8451.83 3303.54 8451.11 3301.4 8449.92V7938.05H3530.14C3547.5 7937.02 3563.82 7929.4 3575.75 7916.74C3587.68 7904.08 3594.33 7887.34 3594.33 7869.95C3594.33 7852.55 3587.68 7835.82 3575.75 7823.16C3563.82 7810.5 3547.5 7802.88 3530.14 7801.85H3302.59V5468.62H3165.2V7801.85H2937.89C2928.61 7801.3 2919.31 7802.65 2910.57 7805.83C2901.83 7809 2893.83 7813.93 2887.07 7820.31C2880.3 7826.68 2874.91 7834.38 2871.22 7842.91C2867.54 7851.45 2865.64 7860.65 2865.64 7869.95C2865.64 7879.25 2867.54 7888.45 2871.22 7896.98C2874.91 7905.52 2880.3 7913.21 2887.07 7919.59C2893.83 7925.97 2901.83 7930.9 2910.57 7934.07C2919.31 7937.24 2928.61 7938.6 2937.89 7938.05H3165.2V8449.2C3163.05 8449.2 3160.91 8451.11 3158.76 8452.54C3081.72 8497.38 2957.21 8539.6 2844.15 8571.8C2836.51 8574.11 2829.95 8579.08 2825.66 8585.81C2821.37 8592.53 2819.63 8600.57 2820.75 8608.47C2821.88 8616.37 2825.79 8623.61 2831.79 8628.87C2837.79 8634.13 2845.47 8637.07 2853.45 8637.16H3613.15C3620.77 8636.64 3627.99 8633.52 3633.59 8628.32C3639.19 8623.12 3642.84 8616.16 3643.93 8608.6C3645.02 8601.03 3643.48 8593.33 3639.57 8586.76C3635.66 8580.19 3629.62 8575.17 3622.45 8572.52Z">
                        </path>
                        <path fill="#429CFD"
                            d="M3657.51 5231.05H2809.32C2741.09 5231.05 2685.77 5286.37 2685.77 5354.6V5606.72C2685.77 5674.96 2741.09 5730.28 2809.32 5730.28H3657.51C3725.75 5730.28 3781.07 5674.96 3781.07 5606.72V5354.6C3781.07 5286.37 3725.75 5231.05 3657.51 5231.05Z">
                        </path>
                        <path fill="#429CFD"
                            d="M2801.45 5730.52V5773.93C2801.45 5809.71 2840.33 5838.81 2888.04 5838.81H3579.75C3627.46 5838.81 3666.34 5809.71 3666.34 5773.93V5730.52H2801.45Z">
                        </path>
                        <path fill="white"
                            d="M2801.45 5730.52V5773.93C2801.45 5809.71 2840.33 5838.81 2888.04 5838.81H3579.75C3627.46 5838.81 3666.34 5809.71 3666.34 5773.93V5730.52H2801.45Z"
                            opacity="0.3"></path>
                    </svg>